PathFileType	4	(X/Y/Z)	c:/Users/goper/Files/vsCode/490R/osim_files/C15/C15_Static03.trc
DataRate	CameraRate	NumFrames	NumMarkers	Units                	OrigDataRate	OrigDataStartFrame	OrigNumFrames
250.00	250.00	4	36	mm	250.0	140	1115
                Frame#	Time	LPSIS			LASIS			LTH1			LTH2			LTH3			LTH4			LLFE			LMFE			LSH1			LSH2			LSH3			LSH4			LLMAL			LMMAL			LCAL			LMTP5			LTOE			LMTP1			RPSIS			RASIS			RTH1			RTH2			RTH3			RTH4			RLFE			RMFE			RSH1			RSH2			RSH3			RSH4			RLMAL			RMMAL			RCAL			RMTP1			RTOE			RMTP5		
		X1	Y1	Z1	X2	Y2	Z2	X3	Y3	Z3	X4	Y4	Z4	X5	Y5	Z5	X6	Y6	Z6	X7	Y7	Z7	X8	Y8	Z8	X9	Y9	Z9	X10	Y10	Z10	X11	Y11	Z11	X12	Y12	Z12	X13	Y13	Z13	X14	Y14	Z14	X15	Y15	Z15	X16	Y16	Z16	X17	Y17	Z17	X18	Y18	Z18	X19	Y19	Z19	X20	Y20	Z20	X21	Y21	Z21	X22	Y22	Z22	X23	Y23	Z23	X24	Y24	Z24	X25	Y25	Z25	X26	Y26	Z26	X27	Y27	Z27	X28	Y28	Z28	X29	Y29	Z29	X30	Y30	Z30	X31	Y31	Z31	X32	Y32	Z32	X33	Y33	Z33	X34	Y34	Z34	X35	Y35	Z35	X36	Y36	Z36

140	0.55600	-417.92316	1028.23413	400.11899	-254.82028	1008.60828	328.55679	-345.34476	634.53406	249.30051	-350.59964	587.22028	262.71164	-293.48108	637.52264	252.22150	-295.99084	592.18500	258.88089	-333.82227	499.96112	275.96445	-329.11563	476.62314	394.92853	-405.34299	396.13779	258.43839	-408.83121	353.18738	249.61157	-343.93115	387.78900	255.66515	-354.89453	345.00623	246.82202	-402.43341	85.03153	288.51340	-382.42358	104.16032	379.32574	-463.60419	58.31495	331.69229	-280.81201	36.00176	263.30112	-224.47945	58.76672	326.42636	-260.25928	38.88283	381.72833	-411.79364	1028.68274	520.09692	-254.45238	1002.56213	582.56647	-329.93369	642.00531	651.41058	-330.76352	595.27417	645.88556	-270.57352	636.31964	637.80804	-279.56406	590.37903	637.16010	-328.28851	497.22980	623.48444	-345.51840	473.51309	507.39706	-418.84286	400.45233	648.67621	-421.28528	357.40118	655.95148	-357.69940	388.56693	650.56012	-369.85123	348.74298	658.58209	-416.26117	84.79641	616.59930	-386.85153	102.88889	528.76855	-476.92059	58.77892	572.45905	-273.36795	37.68238	534.88770	-239.20599	55.61298	588.45422	-299.47324	31.02871	654.01593
141	0.56000	-417.93738	1028.23975	400.14963	-254.82805	1008.62616	328.56238	-345.33902	634.52844	249.31003	-350.58237	587.22516	262.71036	-293.46603	637.54120	252.22163	-296.03671	592.19031	258.89966	-333.81235	499.99115	275.95865	-329.17215	476.63763	394.91833	-405.32651	396.14505	258.44794	-408.84543	353.19028	249.61731	-343.93289	387.80692	255.62038	-354.88510	345.02380	246.81824	-402.43430	85.03737	288.49942	-382.45215	104.18777	379.32919	-463.63147	58.31064	331.71729	-280.81726	36.01863	263.30374	-224.49295	58.78202	326.41006	-260.27509	38.90420	381.73154	-411.76755	1028.69287	520.12659	-254.48372	1002.59210	582.58240	-329.97379	642.04260	651.42828	-330.78842	595.30884	645.91699	-270.59686	636.33191	637.81232	-279.59155	590.37012	637.16333	-328.28674	497.23315	623.50977	-345.52029	473.52072	507.39771	-418.87982	400.46365	648.68463	-421.30823	357.38889	655.95068	-357.73538	388.57269	650.57343	-369.86545	348.74252	658.59961	-416.27252	84.82885	616.61554	-386.85715	102.91066	528.75824	-476.90479	58.77486	572.45990	-273.38892	37.68586	534.87061	-239.20242	55.63738	588.42975	-299.47229	31.04563	654.02441
142	0.56400	-417.92523	1028.22034	400.15509	-254.84656	1008.62445	328.56995	-345.33185	634.53638	249.30409	-350.57797	587.24823	262.71082	-293.48581	637.52283	252.21140	-296.02194	592.20544	258.89059	-333.82764	500.00113	275.95731	-329.17950	476.63330	394.93170	-405.26480	396.02090	258.61603	-408.88049	353.18988	249.62410	-343.94000	387.79471	255.64314	-354.90030	344.99948	246.81917	-402.44839	85.05122	288.49637	-382.44943	104.18263	379.32721	-463.61899	58.30929	331.71054	-280.81708	36.01667	263.28491	-224.47884	58.77804	326.40707	-260.24701	38.90318	381.73068	-411.76938	1028.67639	520.15717	-254.49905	1002.58026	582.59686	-329.97205	642.04944	651.43958	-330.77817	595.29047	645.92279	-270.61432	636.32709	637.80975	-279.61536	590.36285	637.17590	-328.26907	497.26993	623.57849	-345.52759	473.53732	507.41278	-418.86417	400.45801	648.68976	-421.29584	357.34991	655.95459	-357.73663	388.55954	650.56830	-369.89349	348.72968	658.60944	-416.26587	84.86501	616.60400	-386.83630	102.91586	528.74902	-476.88086	58.74228	572.48566	-273.37793	37.69090	534.86523	-239.21205	55.63752	588.44250	-299.47061	31.04505	654.01312
143	0.56800	-417.94107	1028.22620	400.17487	-254.87192	1008.62396	328.58716	-345.34290	634.54480	249.30948	-350.53683	587.26141	262.66019	-293.51874	637.54120	252.21030	-296.06073	592.19244	258.90427	-333.85736	500.01624	275.95279	-329.21185	476.65271	394.96158	-405.22662	396.06696	258.58276	-408.90100	353.18991	249.63358	-343.94153	387.80264	255.66379	-354.90900	345.03662	246.81293	-402.45337	85.06507	288.48758	-382.43369	104.18999	379.31946	-463.64359	58.36586	331.70627	-280.88721	35.88173	263.38956	-224.49362	58.76776	326.41144	-260.24670	38.91752	381.73154	-411.74036	1028.67371	520.14893	-254.50726	1002.59167	582.61127	-329.95007	642.05890	651.44397	-330.69891	595.19012	645.99042	-270.64435	636.31036	637.82269	-279.63489	590.36774	637.18677	-328.27243	497.25217	623.57239	-345.55478	473.55942	507.39523	-418.89777	400.44724	648.69720	-421.28809	357.33673	655.96436	-357.43256	388.69354	650.65778	-369.90009	348.72495	658.61340	-416.24979	84.87243	616.61993	-386.85712	102.93928	528.74359	-476.84424	58.71911	572.46533	-273.37051	37.70063	534.88672	-239.21701	55.62639	588.43823	-299.47058	31.05224	654.01575
